<?xml version="1.0" encoding="UTF-8" standalone="no"?>
<svg
   xmlns:vfp="http://www.labcenter.com/namespaces/vfp"
   xmlns:dc="http://purl.org/dc/elements/1.1/"
   xmlns:cc="http://creativecommons.org/ns#"
   xmlns:rdf="http://www.w3.org/1999/02/22-rdf-syntax-ns#"
   xmlns:svg="http://www.w3.org/2000/svg"
   xmlns="http://www.w3.org/2000/svg"
   xmlns:xlink="http://www.w3.org/1999/xlink"
   xmlns:sodipodi="http://sodipodi.sourceforge.net/DTD/sodipodi-0.dtd"
   xmlns:inkscape="http://www.inkscape.org/namespaces/inkscape"
   sodipodi:docname="GenericLoginButton.svg"
   inkscape:version="0.92.1 r15371"
   width="100"
   height="100"
   viewBox="0 0 100 100"
   id="svg2"
   version="1.1">
  <metadata
     id="metadata211">
    <rdf:RDF>
      <cc:Work
         rdf:about="">
        <dc:format>image/svg+xml</dc:format>
        <dc:type
           rdf:resource="http://purl.org/dc/dcmitype/StillImage" />
      </cc:Work>
    </rdf:RDF>
  </metadata>
  <sodipodi:namedview
     pagecolor="#ffffff"
     bordercolor="#666666"
     borderopacity="1"
     objecttolerance="10"
     gridtolerance="10"
     guidetolerance="10"
     inkscape:pageopacity="0"
     inkscape:pageshadow="2"
     inkscape:window-width="1920"
     inkscape:window-height="1018"
     id="namedview20"
     showgrid="false"
     inkscape:zoom="4.72"
     inkscape:cx="-39.339965"
     inkscape:cy="57.840919"
     inkscape:window-x="1912"
     inkscape:window-y="-8"
     inkscape:window-maximized="1"
     inkscape:current-layer="Up" />
  <vfp:catalogue
     PREFIX="login"
     CATEGORY="Buttons"
     DESC="Login Button"
     THEME="Generic" />
  <defs
     id="defs4">
    <filter
       color-interpolation-filters="sRGB"
       inkscape:collect="always"
       id="filter24628"
       x="-0.12"
       width="1.24"
       y="-0.12"
       height="1.24">
      <feGaussianBlur
         inkscape:collect="always"
         stdDeviation="4.9"
         id="feGaussianBlur24630" />
    </filter>
    <linearGradient
       gradientTransform="matrix(1.0745356,0,0,1.0745356,481.06634,15.328007)"
       gradientUnits="userSpaceOnUse"
       y2="-5"
       x2="-440"
       y1="65"
       x1="-365"
       id="GenericGradientLogin3"
       xlink:href="#radioLinearGradient4180" />
    <linearGradient
       id="radioLinearGradient4180">
      <stop
         id="stop4182"
         offset="0"
         style="stop-color:#404040;stop-opacity:1" />
      <stop
         id="stop4184"
         offset="1"
         style="stop-color:#e0e0e0;stop-opacity:1" />
    </linearGradient>
    <linearGradient
       inkscape:collect="always"
       xlink:href="#linearGradient4620-98-9"
       id="GenericGradientLogin2"
       gradientUnits="userSpaceOnUse"
       gradientTransform="matrix(-1.1133816,0,0,1.1177862,-9.7105497,26.548556)"
       x1="-80.512703"
       y1="50.731907"
       x2="-23.137779"
       y2="-9.3504877" />
    <linearGradient
       id="linearGradient4620-98-9">
      <stop
         style="stop-color:#141414;stop-opacity:0.58823532;"
         offset="0"
         id="stop4622-6-2" />
      <stop
         style="stop-color:#c8c8c8;stop-opacity:0;"
         offset="1"
         id="stop4624-6-6" />
    </linearGradient>
    <linearGradient
       inkscape:collect="always"
       xlink:href="#linearGradient4620-9-8"
       id="GenericGradientLogin1"
       gradientUnits="userSpaceOnUse"
       gradientTransform="matrix(1.1519775,0,0,1.156534,-133.50421,-61.152872)"
       x1="131.70361"
       y1="127.66038"
       x2="190.53082"
       y2="68.967537" />
    <linearGradient
       id="linearGradient4620-9-8">
      <stop
         style="stop-color:#000000;stop-opacity:0.78431374;"
         offset="0"
         id="stop4622-98-2" />
      <stop
         style="stop-color:#000000;stop-opacity:0.23529412;"
         offset="1"
         id="stop4624-3-7" />
    </linearGradient>
  </defs>
  <g
     vfp:class="Login"
     id="root">
    <circle
       r="50"
       cy="50"
       cx="50"
       id="Bounds-1"
       style="fill:#808080;fill-opacity:1;stroke:none"
       class="bounds" />
    <circle
       r="49"
       cy="49.381134"
       cx="51.422512"
       id="Lamp"
       style="opacity:0;fill:#9bf6df;fill-opacity:1;filter:url(#filter24628)"
       class="lamp" />
    <g
       transform="matrix(0.92,0,0,0.92,4.0000011,4.0000014)"
       id="Up"
       style="display:inline">
      <circle
         style="fill:url(#GenericGradientLogin3);fill-opacity:1;stroke:#9bf6df;stroke-width:0.32608697;stroke-miterlimit:4;stroke-dasharray:none;stroke-dashoffset:0;stroke-opacity:1"
         id="path4160-9"
         cx="50"
         cy="50"
         r="50" />
      <circle
         transform="matrix(1.0021668,0,0,1.0021668,-0.10834,-0.10834)"
         style="display:inline;fill:#4c5452;fill-opacity:1;stroke:#9bf6df;stroke-width:0.32608697;stroke-miterlimit:4;stroke-dasharray:none;stroke-dashoffset:0;stroke-opacity:1"
         id="path4160"
         cx="50"
         cy="50"
         r="50" />
      <circle
         r="46.531731"
         cy="49.230984"
         cx="49.180054"
         id="circle4172-5"
         style="fill:#cccccc;fill-opacity:1;stroke:#9bf6df;stroke-width:0.32608697;stroke-miterlimit:4;stroke-dasharray:none;stroke-dashoffset:0;stroke-opacity:1"
         class="buttonFace" />
      <path
         inkscape:connector-curvature="0"
         style="display:inline;fill:url(#GenericGradientLogin2);fill-opacity:1;stroke:#9bf6df;stroke-width:0.32608697;stroke-miterlimit:4;stroke-dasharray:none;stroke-opacity:1"
         id="Gradient Unpressed-6"
         d="M 6.5090223,30.947492 C -0.16939569,46.250208 1.7905463,63.877261 11.65055,77.188741 21.510554,90.500221 37.77268,97.47379 54.3111,95.482553 70.849533,93.491317 85.151693,82.83781 91.830109,67.535103 98.508525,52.232398 96.548584,34.605334 86.68858,21.293855 76.828577,7.9823834 60.566463,1.0088235 44.028043,3.0000538 27.489597,4.9912859 13.187436,15.644784 6.5090223,30.947492 c 0,0 0,0 0,0" />
    </g>
    <g
       transform="matrix(0.92,0,0,0.92,4,4)"
       id="Down"
       style="display:none">
      <circle
         style="fill:#4c5452;fill-opacity:1;stroke:#00c8ad;stroke-width:0.54347825;stroke-miterlimit:4;stroke-dasharray:none;stroke-opacity:1"
         id="circle4188"
         cx="49.999996"
         cy="50"
         r="50" />
      <path
         inkscape:connector-curvature="0"
         class="buttonFace"
         style="fill:#cccccc;fill-opacity:1;stroke:#000000;stroke-width:0.61752564;stroke-miterlimit:4;stroke-dasharray:none;stroke-opacity:1"
         id="FacePressed"
         d="M 95.015464,31.941612 C 101.92539,47.774783 99.897504,66.01289 89.695699,79.785813 79.49389,93.558735 62.668055,100.77404 45.556322,98.713768 28.444591,96.653509 13.646647,85.630696 6.736715,69.797513 -0.17321153,53.964356 1.8546646,35.726235 12.056482,21.953312 22.258281,8.180387 39.084108,0.96510178 56.195849,3.0253596 73.307582,5.0856138 88.105534,16.10843 95.015464,31.941612 c 0,0 0,0 0,0" />
      <path
         inkscape:connector-curvature="0"
         style="fill:url(#GenericGradientLogin1);fill-opacity:1;stroke:#00c8ad;stroke-width:0.32608697;stroke-miterlimit:4;stroke-dasharray:none;stroke-opacity:1"
         id="GradientPressed"
         d="M 95.015461,31.941611 C 101.92539,47.77478 99.897511,66.012876 89.695697,79.785813 79.493885,93.558735 62.668051,100.77404 45.556326,98.713768 28.444587,96.653509 13.646643,85.630694 6.7367155,69.797499 -0.17321146,53.964352 1.8546651,35.726233 12.056478,21.953311 22.258277,8.180388 39.084111,0.96511014 56.195849,3.0253557 73.307574,5.0856152 88.105532,16.108429 95.015461,31.941611 c 0,0 0,0 0,0" />
    </g>
    <g
       id="padLockedLarge"
       class="padlock"
       inkscape:label="PadlockLargeLocked"
       transform="translate(164.9063,17.460736)"
       style="display:none">
      <path
         inkscape:connector-curvature="0"
         style="fill:none;stroke:#000000;stroke-width:5.03996277px;stroke-linecap:round;stroke-linejoin:miter;stroke-miterlimit:4;stroke-dasharray:none;stroke-opacity:1"
         d="m -124.86623,25.899355 v -6.319953 c -0.08,-0.879993 0.32,-10.3999229 10.31993,-10.4799219 9.75992,0.08 9.59992,9.4399299 9.59992,10.4799219 l 0.08,6.079955"
         id="path208" />
      <path
         inkscape:connector-curvature="0"
         style="fill:none;stroke:#000000;stroke-width:5.03996277px;stroke-linecap:butt;stroke-linejoin:miter;stroke-miterlimit:4;stroke-dasharray:none;stroke-opacity:1"
         d="m -129.66619,25.979355 h 29.51978 c 1.11999,0 1.999983,0.879993 1.999983,1.999985 v 25.999807 c 0,1.119992 -0.879993,1.999985 -1.999983,1.999985 h -29.51978 c -1.11999,0 -1.99999,-0.879993 -1.99999,-1.999985 V 27.97934 c 0,-1.119992 0.88,-1.999985 1.99999,-1.999985 z"
         id="path210" />
      <path
         inkscape:connector-curvature="0"
         style="fill:#000000;fill-opacity:1;fill-rule:nonzero;stroke:#000000;stroke-width:5.03996277px;stroke-linecap:round;stroke-linejoin:round;stroke-miterlimit:4;stroke-dasharray:none;stroke-opacity:1"
         d="m -111.98632,37.019273 c 0,1.599988 -1.27999,2.879978 -2.87998,2.879978 -1.67999,0 -2.95998,-1.27999 -2.95998,-2.879978 0,-1.679988 1.27999,-2.959978 2.95998,-2.959978 1.59999,0 2.87998,1.27999 2.87998,2.959978 z"
         id="path212" />
      <path
         inkscape:connector-curvature="0"
         style="fill:none;stroke:#000000;stroke-width:5.03996277px;stroke-linecap:round;stroke-linejoin:miter;stroke-miterlimit:4;stroke-dasharray:none;stroke-opacity:1"
         d="m -114.8663,40.05925 v 8.07994"
         id="path214" />
    </g>
    <g
       id="padLockedSmall"
       class="padlock"
       inkscape:label="PadlockSmallLocked"
       transform="translate(124.42661,9.8208004)"
       style="display:inline">
      <path
         inkscape:connector-curvature="0"
         style="fill:none;stroke:#000000;stroke-width:4.23996878px;stroke-linecap:round;stroke-linejoin:miter;stroke-miterlimit:4;stroke-dasharray:none;stroke-opacity:1"
         d="M -82.86654,34.539291 V 29.25933 c 0,-0.719994 0.319998,-8.799935 8.719936,-8.879934 8.239939,0.08 8.07994,7.999941 8.07994,8.879934 l 0.08,5.119962"
         id="path224" />
      <path
         inkscape:connector-curvature="0"
         style="fill:none;stroke:#000000;stroke-width:4.23996878px;stroke-linecap:butt;stroke-linejoin:miter;stroke-miterlimit:4;stroke-dasharray:none;stroke-opacity:1"
         d="m -86.86651,34.619291 h 24.879815 c 0.959993,0 1.679988,0.799994 1.679988,1.679987 v 21.999837 c 0,0.879994 -0.719995,1.679988 -1.679988,1.679988 H -86.86651 c -0.959993,0 -1.679988,-0.799994 -1.679988,-1.679988 V 36.299278 c 0,-0.879993 0.719995,-1.679987 1.679988,-1.679987 z"
         id="path226" />
      <path
         inkscape:connector-curvature="0"
         style="fill:#000000;fill-opacity:1;fill-rule:nonzero;stroke:#000000;stroke-width:4.23996878px;stroke-linecap:round;stroke-linejoin:round;stroke-miterlimit:4;stroke-dasharray:none;stroke-opacity:1"
         d="m -71.98662,43.899222 c 0,1.35999 -1.119992,2.479981 -2.479982,2.479981 -1.35999,0 -2.399982,-1.119991 -2.399982,-2.479981 0,-1.35999 1.039992,-2.479982 2.399982,-2.479982 1.35999,0 2.479982,1.119992 2.479982,2.479982 z"
         id="path228" />
      <path
         inkscape:connector-curvature="0"
         style="fill:none;stroke:#000000;stroke-width:4.23996878px;stroke-linecap:round;stroke-linejoin:miter;stroke-miterlimit:4;stroke-dasharray:none;stroke-opacity:1"
         d="m -74.466602,46.539202 v 6.79995"
         id="path230" />
    </g>
    <g
       id="padUnlockedLarge"
       class="padlock"
       inkscape:label="padUnlockedLarge"
       transform="translate(164.9063,-53.73873)"
       style="display:none">
      <path
         inkscape:connector-curvature="0"
         style="fill:none;stroke:#000000;stroke-width:5.03996277px;stroke-linecap:round;stroke-linejoin:miter;stroke-miterlimit:4;stroke-dasharray:none;stroke-opacity:1"
         d="m -124.78623,101.09879 -0.08,-14.719886 c -0.08,-0.87999 0.4,-10.39992 10.31992,-10.479919 9.75993,0.08 9.59993,9.359929 9.59993,10.479919 v 3.83998"
         id="path200" />
      <path
         inkscape:connector-curvature="0"
         style="display:inline;fill:none;stroke:#000000;stroke-width:5.03996277px;stroke-linecap:butt;stroke-linejoin:miter;stroke-miterlimit:4;stroke-dasharray:none;stroke-opacity:1"
         d="m -129.66619,101.57879 h 29.51978 c 1.11999,0 1.999983,0.87999 1.999983,1.99999 v 26.0798 c 0,1.03999 -0.879993,1.91998 -1.999983,1.91998 h -29.51978 c -1.11999,0 -1.99999,-0.87999 -1.99999,-1.91998 v -26.0798 c 0,-1.12 0.88,-1.99999 1.99999,-1.99999 z"
         id="path202" />
      <path
         inkscape:connector-curvature="0"
         style="display:inline;fill:#000000;fill-opacity:1;fill-rule:nonzero;stroke:#000000;stroke-width:5.03996277px;stroke-linecap:round;stroke-linejoin:round;stroke-miterlimit:4;stroke-dasharray:none;stroke-opacity:1"
         d="m -111.98632,112.6987 c 0,1.59999 -1.27999,2.95998 -2.87998,2.95998 -1.67999,0 -2.95998,-1.35999 -2.95998,-2.95998 0,-1.59998 1.27999,-2.87997 2.95998,-2.87997 1.59999,0 2.87998,1.27999 2.87998,2.87997 z"
         id="path204" />
      <path
         inkscape:connector-curvature="0"
         style="display:inline;fill:none;stroke:#000000;stroke-width:5.03996277px;stroke-linecap:round;stroke-linejoin:miter;stroke-miterlimit:4;stroke-dasharray:none;stroke-opacity:1"
         d="m -114.8663,115.81868 v 8.07994"
         id="path206" />
    </g>
    <g
       id="padUnlockedSmall"
       class="padlock"
       inkscape:label="PadlockSmallUnlocked"
       transform="translate(124.42661,-50.21875)"
       style="display:none">
      <path
         inkscape:connector-curvature="0"
         style="fill:none;stroke:#000000;stroke-width:4.23996878px;stroke-linecap:round;stroke-linejoin:miter;stroke-miterlimit:4;stroke-dasharray:none;stroke-opacity:1"
         d="m -82.78654,97.978824 -0.08,-12.39991 c 0,-0.72 0.319998,-8.799936 8.719936,-8.879935 8.239939,0.08 8.159939,7.999945 8.159939,8.879935 v 3.19998"
         id="path216" />
      <path
         inkscape:connector-curvature="0"
         style="fill:none;stroke:#000000;stroke-width:4.23996878px;stroke-linecap:butt;stroke-linejoin:miter;stroke-miterlimit:4;stroke-dasharray:none;stroke-opacity:1"
         d="m -86.86651,98.458814 h 24.879815 c 0.959993,0 1.679988,0.72 1.679988,1.679986 v 21.91983 c 0,0.96 -0.719995,1.67999 -1.679988,1.67999 H -86.86651 c -0.959993,0 -1.679988,-0.71999 -1.679988,-1.67999 V 100.1388 c 0,-0.959986 0.719995,-1.679986 1.679988,-1.679986 z"
         id="path218" />
      <path
         inkscape:connector-curvature="0"
         style="fill:#000000;fill-opacity:1;fill-rule:nonzero;stroke:#000000;stroke-width:4.23996878px;stroke-linecap:round;stroke-linejoin:round;stroke-miterlimit:4;stroke-dasharray:none;stroke-opacity:1"
         d="m -71.98662,107.81874 c 0,1.35999 -1.119992,2.47998 -2.479982,2.47998 -1.35999,0 -2.399982,-1.11999 -2.399982,-2.47998 0,-1.35999 1.039992,-2.47998 2.399982,-2.47998 1.35999,0 2.479982,1.11999 2.479982,2.47998 z"
         id="path220" />
      <path
         inkscape:connector-curvature="0"
         style="fill:none;stroke:#000000;stroke-width:4.23996878px;stroke-linecap:round;stroke-linejoin:miter;stroke-miterlimit:4;stroke-dasharray:none;stroke-opacity:1"
         d="m -74.466602,110.37872 v 6.87995"
         id="path222" />
    </g>
    <text
       id="text4145-5"
       y="-10"
       x="50"
       style="font-style:normal;font-variant:normal;font-weight:normal;font-stretch:normal;font-size:30px;line-height:0%;font-family:sans-serif;text-align:center;letter-spacing:0px;word-spacing:0px;writing-mode:lr-tb;text-anchor:middle;display:inline;fill:#00000c;fill-opacity:1;stroke:none"
       xml:space="preserve">Label</text>
  </g>
</svg>
