<?xml version="1.0" encoding="UTF-8" standalone="no"?>
<svg
   xmlns:vfp="http://www.labcenter.com/namespaces/vfp"
   xmlns:dc="http://purl.org/dc/elements/1.1/"
   xmlns:cc="http://creativecommons.org/ns#"
   xmlns:rdf="http://www.w3.org/1999/02/22-rdf-syntax-ns#"
   xmlns:svg="http://www.w3.org/2000/svg"
   xmlns="http://www.w3.org/2000/svg"
   xmlns:xlink="http://www.w3.org/1999/xlink"
   xmlns:sodipodi="http://sodipodi.sourceforge.net/DTD/sodipodi-0.dtd"
   xmlns:inkscape="http://www.inkscape.org/namespaces/inkscape"
   viewBox="0 0 100 100"
   version="1.1"
   id="svg54"
   sodipodi:docname="ModernLoginButton.svg"
   inkscape:version="0.92.1 r15371">
  <metadata
     id="metadata58">
    <rdf:RDF>
      <cc:Work
         rdf:about="">
        <dc:format>image/svg+xml</dc:format>
        <dc:type
           rdf:resource="http://purl.org/dc/dcmitype/StillImage" />
      </cc:Work>
    </rdf:RDF>
  </metadata>
  <sodipodi:namedview
     pagecolor="#ffffff"
     bordercolor="#666666"
     borderopacity="1"
     objecttolerance="10"
     gridtolerance="10"
     guidetolerance="10"
     inkscape:pageopacity="0"
     inkscape:pageshadow="2"
     inkscape:window-width="1920"
     inkscape:window-height="1018"
     id="namedview56"
     showgrid="false"
     inkscape:zoom="3.337544"
     inkscape:cx="-52.657163"
     inkscape:cy="52.978575"
     inkscape:window-x="1912"
     inkscape:window-y="-8"
     inkscape:window-maximized="1"
     inkscape:current-layer="g50" />
  <defs
     id="defs22">
    <linearGradient
       id="ModernLoginGradient"
       x1="85.36"
       y1="85.36"
       x2="14.64"
       y2="14.64"
       gradientUnits="userSpaceOnUse">
      <stop
         offset="0"
         stop-opacity="0.3"
         id="stop2" />
      <stop
         offset="0.56"
         stop-opacity="0"
         id="stop4" />
    </linearGradient>
    <linearGradient
       id="ModernLoginGradient-2"
       x1="24.39"
       y1="24.39"
       x2="75.61"
       y2="75.61"
       gradientUnits="userSpaceOnUse">
      <stop
         offset="0"
         stop-opacity="0.4"
         id="stop7" />
      <stop
         offset="0.43"
         stop-opacity="0.21"
         id="stop9" />
      <stop
         offset="0.5"
         stop-opacity="0"
         id="stop11" />
    </linearGradient>
    <linearGradient
       id="ModernLoginGradient-3"
       x1="73.86"
       y1="73.86"
       x2="26.14"
       y2="26.14"
       gradientUnits="userSpaceOnUse">
      <stop
         offset="0.44"
         stop-opacity="0"
         id="stop14" />
      <stop
         offset="1"
         stop-opacity="0.3"
         id="stop16" />
    </linearGradient>
    <linearGradient
       id="ModernLoginGradient-4"
       x1="24.25"
       y1="24.25"
       x2="75.75"
       y2="75.75"
       xlink:href="#ModernLoginGradient-2" />
    <linearGradient
       id="ModernLoginGradient-5"
       x1="71.88"
       y1="71.88"
       x2="28.12"
       y2="28.12"
       xlink:href="#ModernLoginGradient-3" />
    <radialGradient
       id="radial-gradient"
       cx="50"
       cy="50"
       r="30.94"
       xlink:href="#ModernLoginGradient-3" />
    <linearGradient
       inkscape:collect="always"
       xlink:href="#ModernLoginGradient-2"
       id="linearGradient3730"
       gradientUnits="userSpaceOnUse"
       x1="24.39"
       y1="24.39"
       x2="75.61"
       y2="75.61" />
    <linearGradient
       inkscape:collect="always"
       xlink:href="#ModernLoginGradient-3"
       id="linearGradient3732"
       gradientUnits="userSpaceOnUse"
       x1="73.86"
       y1="73.86"
       x2="26.14"
       y2="26.14" />
  </defs>
  <vfp:catalogue
     PREFIX="login"
     CATEGORY="Buttons"
     DESC="Login Button"
     THEME="Modern" />
  <g
     vfp:class="Login"
     id="g50"
     inkscape:label="Root">
    <circle
       class="bounds"
       cx="50"
       cy="50"
       r="50"
       style="fill:#fffef5"
       id="circle26" />
    <circle
       cx="50"
       cy="50"
       r="50"
       style="fill:url(#ModernLoginGradient)"
       id="circle28" />
    <circle
       class="lamp"
       cx="50"
       cy="50"
       r="36.25"
       style="fill:#e30613"
       id="circle30" />
    <g
       id="g38">
      <path
         d="M 50,16.25 A 33.75,33.75 0 1 1 26.14,26.14 33.64,33.64 0 0 1 50,16.25 m 0,-2.47 v 0 A 36.22,36.22 0 1 0 75.61,24.39 36,36 0 0 0 50,13.78 Z"
         style="fill:url(#linearGradient3730)"
         id="path32"
         inkscape:connector-curvature="0" />
      <circle
         class="buttonFace"
         cx="50"
         cy="50"
         r="33.75"
         style="fill:#fffef5"
         id="circle34" />
      <circle
         cx="50"
         cy="50"
         r="33.75"
         style="fill:url(#linearGradient3732)"
         id="circle36" />
    </g>
    <g
       id="g48"
       style="display:none"
       inkscape:label="Down">
      <path
         d="m 50,19.28 a 30.72,30.72 0 1 1 -21.72,9 30.62,30.62 0 0 1 21.72,-9 m 0,-5.7 v 0 A 36.42,36.42 0 1 0 75.75,24.25 36.18,36.18 0 0 0 50,13.58 Z"
         style="fill:url(#ModernLoginGradient-4)"
         id="path40"
         inkscape:connector-curvature="0" />
      <circle
         class="buttonFace"
         cx="50"
         cy="50"
         r="30.940001"
         style="fill:#fffef5"
         id="circle42" />
      <circle
         cx="50"
         cy="50"
         r="30.940001"
         style="fill:url(#ModernLoginGradient-5)"
         id="circle44" />
      <circle
         cx="50"
         cy="50"
         r="30.940001"
         style="fill:url(#radial-gradient)"
         id="circle46" />
    </g>
    <g
       id="padLockedLarge"
       class="padlock"
       transform="matrix(0.91079327,0,0,0.91079327,150.52406,23.4412)"
       style="display:inline"
       inkscape:label="LargeLock">
      <path
         inkscape:connector-curvature="0"
         style="fill:none;stroke:#000000;stroke-width:5.03996277px;stroke-linecap:round;stroke-linejoin:miter;stroke-miterlimit:4;stroke-dasharray:none;stroke-opacity:1"
         d="m -118.93402,20.390881 v -6.319953 c -0.08,-0.879993 0.31999,-10.399923 10.31992,-10.4799224 9.759927,0.079999 9.599928,9.4399304 9.599928,10.4799224 l 0.08,6.079955"
         id="path46" />
      <path
         inkscape:connector-curvature="0"
         style="fill:none;stroke:#000000;stroke-width:5.03996277px;stroke-linecap:butt;stroke-linejoin:miter;stroke-miterlimit:4;stroke-dasharray:none;stroke-opacity:1"
         d="m -123.73399,20.470881 h 29.519782 c 1.119992,0 1.999985,0.879993 1.999985,1.999985 v 25.999807 c 0,1.119992 -0.879993,1.999985 -1.999985,1.999985 h -29.519782 c -1.11999,0 -1.99998,-0.879993 -1.99998,-1.999985 V 22.470866 c 0,-1.119992 0.87999,-1.999985 1.99998,-1.999985 z"
         id="path48" />
      <path
         inkscape:connector-curvature="0"
         style="fill:#000000;fill-opacity:1;fill-rule:nonzero;stroke:#000000;stroke-width:5.03996277px;stroke-linecap:round;stroke-linejoin:round;stroke-miterlimit:4;stroke-dasharray:none;stroke-opacity:1"
         d="m -106.05412,31.510799 c 0,1.599988 -1.27999,2.879978 -2.87998,2.879978 -1.67999,0 -2.95998,-1.27999 -2.95998,-2.879978 0,-1.679988 1.27999,-2.959978 2.95998,-2.959978 1.59999,0 2.87998,1.27999 2.87998,2.959978 z"
         id="path50" />
      <path
         inkscape:connector-curvature="0"
         style="fill:none;stroke:#000000;stroke-width:5.03996277px;stroke-linecap:round;stroke-linejoin:miter;stroke-miterlimit:4;stroke-dasharray:none;stroke-opacity:1"
         d="m -108.9341,34.550776 v 8.07994"
         id="path52" />
    </g>
    <g
       id="padLockedSmall"
       class="padlock"
       transform="matrix(0.91079327,0,0,0.91079327,113.65543,16.482798)"
       style="display:none"
       inkscape:label="SmallLock">
      <path
         inkscape:connector-curvature="0"
         style="fill:none;stroke:#000000;stroke-width:4.23996878px;stroke-linecap:round;stroke-linejoin:miter;stroke-miterlimit:4;stroke-dasharray:none;stroke-opacity:1"
         d="m -76.934336,29.030817 v -5.279961 c 0,-0.719994 0.319998,-8.799935 8.719936,-8.879934 8.239939,0.08 8.07994,7.999941 8.07994,8.879934 l 0.08,5.119962"
         id="path62" />
      <path
         inkscape:connector-curvature="0"
         style="fill:none;stroke:#000000;stroke-width:4.23996878px;stroke-linecap:butt;stroke-linejoin:miter;stroke-miterlimit:4;stroke-dasharray:none;stroke-opacity:1"
         d="m -80.934306,29.110817 h 24.879815 c 0.959993,0 1.679988,0.799994 1.679988,1.679987 v 21.999837 c 0,0.879994 -0.719995,1.679988 -1.679988,1.679988 h -24.879815 c -0.959993,0 -1.679988,-0.799994 -1.679988,-1.679988 V 30.790804 c 0,-0.879993 0.719995,-1.679987 1.679988,-1.679987 z"
         id="path64" />
      <path
         inkscape:connector-curvature="0"
         style="fill:#000000;fill-opacity:1;fill-rule:nonzero;stroke:#000000;stroke-width:4.23996878px;stroke-linecap:round;stroke-linejoin:round;stroke-miterlimit:4;stroke-dasharray:none;stroke-opacity:1"
         d="m -66.054416,38.390748 c 0,1.35999 -1.119992,2.479981 -2.479982,2.479981 -1.35999,0 -2.399982,-1.119991 -2.399982,-2.479981 0,-1.35999 1.039992,-2.479982 2.399982,-2.479982 1.35999,0 2.479982,1.119992 2.479982,2.479982 z"
         id="path66" />
      <path
         inkscape:connector-curvature="0"
         style="fill:none;stroke:#000000;stroke-width:4.23996878px;stroke-linecap:round;stroke-linejoin:miter;stroke-miterlimit:4;stroke-dasharray:none;stroke-opacity:1"
         d="m -68.534398,41.030728 v 6.79995"
         id="path68" />
    </g>
    <g
       id="padUnlockedLarge"
       class="padlock"
       transform="matrix(0.91079327,0,0,0.91079327,150.52406,-41.406797)"
       style="display:none"
       inkscape:label="LargeUnlock">
      <path
         inkscape:connector-curvature="0"
         style="fill:none;stroke:#000000;stroke-width:5.03996277px;stroke-linecap:round;stroke-linejoin:miter;stroke-miterlimit:4;stroke-dasharray:none;stroke-opacity:1"
         d="m -118.85403,95.590324 -0.08,-14.719891 c -0.08,-0.879993 0.39999,-10.399923 10.31992,-10.479922 9.759927,0.08 9.599928,9.35993 9.599928,10.479922 v 3.839972"
         id="path38" />
      <path
         inkscape:connector-curvature="0"
         style="fill:none;stroke:#000000;stroke-width:5.03996277px;stroke-linecap:butt;stroke-linejoin:miter;stroke-miterlimit:4;stroke-dasharray:none;stroke-opacity:1"
         d="m -123.73399,96.070321 h 29.519782 c 1.119992,0 1.999985,0.879993 1.999985,1.999985 v 26.079804 c 0,1.03999 -0.879993,1.91998 -1.999985,1.91998 h -29.519782 c -1.11999,0 -1.99998,-0.87999 -1.99998,-1.91998 V 98.070306 c 0,-1.119992 0.87999,-1.999985 1.99998,-1.999985 z"
         id="path40-5" />
      <path
         inkscape:connector-curvature="0"
         style="fill:#000000;fill-opacity:1;fill-rule:nonzero;stroke:#000000;stroke-width:5.03996277px;stroke-linecap:round;stroke-linejoin:round;stroke-miterlimit:4;stroke-dasharray:none;stroke-opacity:1"
         d="m -106.05412,107.19023 c 0,1.59999 -1.27999,2.95998 -2.87998,2.95998 -1.67999,0 -2.95998,-1.35999 -2.95998,-2.95998 0,-1.59998 1.27999,-2.87997 2.95998,-2.87997 1.59999,0 2.87998,1.27999 2.87998,2.87997 z"
         id="path42" />
      <path
         inkscape:connector-curvature="0"
         style="fill:none;stroke:#000000;stroke-width:5.03996277px;stroke-linecap:round;stroke-linejoin:miter;stroke-miterlimit:4;stroke-dasharray:none;stroke-opacity:1"
         d="m -108.9341,110.31021 v 8.07994"
         id="path44" />
    </g>
    <g
       id="padUnlockedSmall"
       class="padlock"
       transform="matrix(0.91079327,0,0,0.91079327,113.65543,-38.200822)"
       style="display:none"
       inkscape:label="SmallUnlock">
      <path
         inkscape:connector-curvature="0"
         style="fill:none;stroke:#000000;stroke-width:4.23996878px;stroke-linecap:round;stroke-linejoin:miter;stroke-miterlimit:4;stroke-dasharray:none;stroke-opacity:1"
         d="m -76.854336,92.470347 -0.08,-12.399908 c 0,-0.719995 0.319998,-8.799935 8.719936,-8.879934 8.239939,0.08 8.159939,7.999941 8.159939,8.879934 v 3.199976"
         id="path54" />
      <path
         inkscape:connector-curvature="0"
         style="fill:none;stroke:#000000;stroke-width:4.23996878px;stroke-linecap:butt;stroke-linejoin:miter;stroke-miterlimit:4;stroke-dasharray:none;stroke-opacity:1"
         d="m -80.934306,92.950344 h 24.879815 c 0.959993,0 1.679988,0.719994 1.679988,1.679987 v 21.919829 c 0,0.96 -0.719995,1.67999 -1.679988,1.67999 h -24.879815 c -0.959993,0 -1.679988,-0.71999 -1.679988,-1.67999 V 94.630331 c 0,-0.959993 0.719995,-1.679987 1.679988,-1.679987 z"
         id="path56" />
      <path
         inkscape:connector-curvature="0"
         style="fill:#000000;fill-opacity:1;fill-rule:nonzero;stroke:#000000;stroke-width:4.23996878px;stroke-linecap:round;stroke-linejoin:round;stroke-miterlimit:4;stroke-dasharray:none;stroke-opacity:1"
         d="m -66.054416,102.31027 c 0,1.35999 -1.119992,2.47998 -2.479982,2.47998 -1.35999,0 -2.399982,-1.11999 -2.399982,-2.47998 0,-1.35999 1.039992,-2.479977 2.399982,-2.479977 1.35999,0 2.479982,1.119987 2.479982,2.479977 z"
         id="path58" />
      <path
         inkscape:connector-curvature="0"
         style="fill:none;stroke:#000000;stroke-width:4.23996878px;stroke-linecap:round;stroke-linejoin:miter;stroke-miterlimit:4;stroke-dasharray:none;stroke-opacity:1"
         d="m -68.534398,104.87025 v 6.87995"
         id="path60" />
    </g>
    <text
       id="text4145"
       y="133.64171"
       x="50.620945"
       style="font-style:normal;font-variant:normal;font-weight:normal;font-stretch:normal;font-size:30px;line-height:125%;font-family:sans-serif;-inkscape-font-specification:'sans-serif, Normal';text-align:center;letter-spacing:0px;word-spacing:0px;writing-mode:lr-tb;text-anchor:middle;fill:#00000c;fill-opacity:1;stroke:none;stroke-width:1px;stroke-linecap:butt;stroke-linejoin:miter;stroke-opacity:1"
       xml:space="preserve">label</text>
  </g>
</svg>
